<svg xmlns="http://www.w3.org/2000/svg" viewBox="0 0 530.76 492.43"><defs><style>.cls-1{fill:#dbc112;}</style></defs><g id="Warstwa_2" data-name="Warstwa 2"><g id="Warstwa_1-2" data-name="Warstwa 1"><path class="cls-1" d="M530.76,397.9c-2.52,5.53-2,11.57-2.86,17.37-3.65,25.62-10.31,50.48-18.51,75a15.38,15.38,0,0,1-1.3,2.19c-5.54-12.45-10.95-24.56-16.34-36.68-2.84-6.38-5.54-12.83-8.56-19.13-1.09-2.29-.73-3.66.76-5.66a42.88,42.88,0,0,0,7.92-35.4c-1.74-8.75-7.21-13.43-16.16-14.16a40.88,40.88,0,0,1,3,22.82c-1.48,8.78-6.65,13.43-13.8,12.72-3.23-.32-4.73-1.33-3.91-5,5.68-25.68,6.88-51.72,5.68-77.91-.1-2.09.25-4.29-1.52-6.68-1.15,10.83-1.49,21.22-3.25,31.44a69.41,69.41,0,0,1-4.28,15.86c-3.51,8.09-10,12.38-17.32,11.82-3.18-.25-4.77-.55-2.9-4.57,11-23.65,15.95-48.92,19.35-74.56.23-1.77.73-3.61,0-5.42.59.15.77,0,.4-.55l-.31.65c-3.16,4.38-4,9.69-5.74,14.62-4.64,13.18-8.6,26.64-16.17,38.59a42.86,42.86,0,0,1-6.63,8.08c-7.21,6.91-15.45,7.71-24.53,4.44-3.33-1.2-3.5-2.55-1.38-5.29a224.11,224.11,0,0,0,20.42-31.94c8.58-16.06,15.17-32.94,20.75-50.23a3.31,3.31,0,0,0-.13-3.16c-2.78,2.53-4.07,6-5.83,9-9.43,16.46-18.29,33.29-30.32,48.11-5.38,6.63-11.32,12.69-19,16.67-9.31,4.8-19.56,3.27-27.36-3.71-2.14-1.92-1.91-2.7.27-4.35,29.32-22.18,53.08-49.86,76.69-77.68a9.13,9.13,0,0,0,.9-1.74c-2.09-1-2.89.73-3.88,1.59-17.09,14.86-34,29.92-51.23,44.63-12.65,10.8-26.48,19.68-43.27,22.68-16,2.85-31.68,1.1-48.85-3.18,49-21,93.78-46.25,134-80.54-3.55-1.25-5.51.67-7.56,1.6-26.07,11.84-51.08,25.9-77.31,37.43-20.1,8.84-40.79,15.56-63,15.84-21,.27-40.73-5-61-14.92,68.14-15,133-35.28,195.66-64.76-3-1.46-5-.62-7.05-.16C366,232.72,326.76,242,287,248.36c-30.11,4.82-60.33,8.71-90.93,7.42-15.18-.63-30.25-2.33-44.07-9.46-8.32-4.29-14.53-10.46-17.21-19.73-2.05-7.12-1.93-7.22,5.19-6.83,42.26,2.3,84.51,3.53,126.83,1.42,39-1.94,77.65-6,115.87-14a2.86,2.86,0,0,0,2.22-1.5H361.7c-31.15,0-62.31.46-93.45-.15-37.63-.73-75.22-2.78-112.33-9.64-23.49-4.34-46.65-10-67.1-23.09C73.33,162.87,63.34,149.5,64,130.08c.22-6.56.41-6.61,6.44-4.68a1428.33,1428.33,0,0,0,149.21,38.85c49.44,10.11,99.27,17.7,149.25,24.48.32,0,.66,0,1.23-.88-4.95-1.28-9.89-2.62-14.87-3.81-46-10.95-92.47-19.66-138.34-31.12C171.5,141.57,126.52,128.77,84.72,107c-25.8-13.46-49.29-29.88-66.23-54.2A103.68,103.68,0,0,1,.27,4.19C.13,3-.45,1.64.71,0,9.5,6,18.36,11.81,27.55,17.1c35.93,20.66,74.19,36.13,112.86,50.67,48.3,18.16,97.34,34.3,145.42,53.05,42.55,16.59,84.34,34.76,123.25,58.92,30.21,18.76,57.6,40.78,79.5,69.11,23.65,30.57,37,65.22,41.06,103.53.13,1.23-.45,2.75,1.12,3.54v5c-1.53,1.07-1,2.68-1,4.09q0,10.9,0,21.82c0,1.41-.56,3,1,4.08Z"/></g></g></svg>