<svg xmlns="http://www.w3.org/2000/svg" viewBox="0 0 315.57 315.65"><defs><style>.cls-1{fill:#fff;}</style></defs><g id="Warstwa_2" data-name="Warstwa 2"><g id="Warstwa_1-2" data-name="Warstwa 1"><path class="cls-1" d="M157.85,315.65C72.94,316.33-.59,247.08,0,157.09.58,69.6,69.7-.06,158,0c87.83.06,157.68,69.78,157.6,158.47C315.5,246.84,243.11,316.2,157.85,315.65Zm-.24-23.95c73.56.05,134.4-60.22,134-133.63-.43-74.69-58.93-134.3-134.35-134C82.06,24.41,24.55,83.89,24,157.72,23.44,231.24,84.15,291.65,157.61,291.7Z"/><path class="cls-1" d="M216.72,180.51a19.75,19.75,0,0,0,0-3.61c-2.87-12.72,2-23.46,8.4-33.92,3.8-6.26,7.35-12.68,10.73-19.17,3.22-6.18,2.7-8.37-2.29-13.16-1.32-1.27-2.76-2.43-4.06-3.71-4.76-4.66-5.06-9.27-1-14.6,3.39-4.48,7.55-5.11,13.14-1.66a78.79,78.79,0,0,1,9.77,6.89c9.45,8.06,12.26,20,6.91,31.15-4.54,9.44-9.71,18.58-14.67,27.81-7,12.94-6.42,17.28,3.56,27.92,5.34,5.7,6,9.14,2.68,14.63-3.15,5.25-6.78,7-12.62,4.86-12.39-4.48-20-2.9-28.16,10.89-4.74,8-9.88,15.82-15.13,23.52-10.42,15.27-33.19,17.19-46.27,4.06-3.49-3.5-3.8-7.4-.76-12.24,2.5-4,5.94-6.82,10.81-4.72,13,5.64,16.85,3.63,24.54-9.91,3.2-5.64,6.61-11.17,10-16.71C197.89,189.57,204.83,182,216.72,180.51Z"/><path class="cls-1" d="M85.25,160.44c11.14,7.24,13.39,17.71,13.41,29.15,0,8,0,16,.15,24,.17,10.59,1.75,12.46,12.13,14.76,8.81,1.95,11.43,4.87,10.81,12-.41,4.82-3.56,8.33-8.35,8.16-6.12-.21-12.37-.54-18.29-2C85,244.16,79,237.11,77.87,226.9c-1.22-11.39-1.62-22.89-2-34.36-.41-12.68-4.1-17.69-16.29-20.94-9.36-2.5-12.53-6.86-9.91-14.86.82-2.49,3.34-4.67,5.55-6.37,1.46-1.13,3.75-1.21,5.68-1.68,10-2.44,14.46-8.14,14.91-18.45.52-12.13.6-24.32,2-36.36C80,75.09,101.59,68.73,114.31,71.07c4.84.89,7.33,4.6,7.45,9.86s-2.07,8.6-7,10.18a7.6,7.6,0,0,1-1.45.39c-12.24,1.21-14.73,5.84-14.65,18,.07,9.3-.24,18.62-.62,27.92S93.33,154.26,85.25,160.44Z"/></g></g></svg>